<?xml version="1.0" standalone="no"?>
<!DOCTYPE svg PUBLIC "-//W3C//DTD SVG 20010904//EN"
 "http://www.w3.org/TR/2001/REC-SVG-20010904/DTD/svg10.dtd">
<svg version="1.0" xmlns="http://www.w3.org/2000/svg"
 width="236.000000pt" height="231.000000pt" viewBox="0 0 236.000000 231.000000"
 preserveAspectRatio="xMidYMid meet">

<g transform="translate(0.000000,231.000000) scale(0.100000,-0.100000)"
fill="#000000" stroke="none">
<path d="M880 1695 c0 -146 -3 -205 -11 -205 -7 0 -26 9 -43 19 -130 80 -357
81 -516 3 -79 -38 -198 -160 -238 -242 -36 -73 -62 -180 -62 -256 0 -70 33
-193 72 -267 104 -195 341 -313 565 -279 158 24 334 144 403 275 l25 47 -100
100 -99 99 -13 -51 c-35 -135 -141 -220 -285 -226 -66 -4 -85 0 -135 23 -114
52 -173 138 -181 265 -5 97 21 170 84 235 63 65 121 89 214 90 138 0 130 6
540 -399 388 -384 411 -403 544 -441 71 -21 201 -23 276 -6 241 57 421 282
422 531 3 419 -417 681 -801 500 -34 -17 -65 -30 -67 -30 -2 0 -4 95 -4 210
l0 210 -115 0 -115 0 0 -284 c0 -156 -3 -292 -6 -301 -5 -11 23 -46 94 -118
l101 -101 103 100 c123 120 165 139 282 132 116 -8 212 -72 263 -177 26 -53
30 -176 7 -243 -24 -73 -109 -158 -184 -184 -79 -26 -164 -23 -237 10 -48 23
-98 66 -300 269 l-243 241 0 328 0 328 -120 0 -120 0 0 -205z"/>
</g>
</svg>
