<?xml version="1.0" standalone="no"?>
<!DOCTYPE svg PUBLIC "-//W3C//DTD SVG 20010904//EN"
 "http://www.w3.org/TR/2001/REC-SVG-20010904/DTD/svg10.dtd">
<svg version="1.0" xmlns="http://www.w3.org/2000/svg"
 width="879.000000pt" height="207.000000pt" viewBox="0 0 879.000000 207.000000"
 preserveAspectRatio="xMidYMid meet">

<g transform="translate(0.000000,207.000000) scale(0.100000,-0.100000)"
fill="#000000" stroke="none">
<path d="M460 1735 l0 -115 155 0 155 0 0 -605 0 -605 115 0 115 0 0 605 0
605 155 0 155 0 0 115 0 115 -425 0 -425 0 0 -115z"/>
<path d="M4240 1636 l0 -205 -59 29 c-216 107 -465 64 -642 -110 -106 -104
-159 -236 -159 -393 0 -158 59 -296 170 -401 110 -104 238 -156 384 -156 198
0 383 105 485 274 l34 57 -99 100 c-54 54 -101 99 -104 99 -3 0 -11 -21 -18
-47 -45 -171 -219 -268 -390 -218 -68 20 -151 97 -183 167 -35 79 -33 184 4
260 34 70 102 131 169 154 71 23 179 16 241 -16 32 -17 157 -134 375 -350 350
-349 388 -383 469 -424 123 -62 304 -73 428 -26 444 169 508 745 111 1002
-155 100 -358 113 -526 32 -40 -19 -74 -34 -76 -34 -2 0 -4 92 -4 205 l0 205
-125 0 -125 0 0 -303 0 -302 94 -98 c52 -53 99 -97 104 -97 6 0 49 38 96 85
106 107 161 135 262 135 39 0 91 -7 117 -16 63 -21 130 -83 164 -152 24 -48
28 -69 28 -137 0 -99 -28 -159 -106 -229 -88 -79 -225 -99 -329 -46 -29 14
-131 107 -287 263 l-243 241 -2 326 -3 325 -127 3 -128 3 0 -205z"/>
<path d="M2550 1494 c-189 -50 -350 -216 -395 -405 -47 -199 12 -397 159 -536
176 -167 412 -201 623 -89 l63 34 0 -44 0 -44 115 0 115 0 0 545 0 545 -115 0
-115 0 0 -44 0 -44 -63 34 c-118 63 -264 81 -387 48z m243 -240 c59 -20 139
-91 167 -148 42 -88 44 -207 4 -293 -28 -59 -112 -137 -168 -156 -62 -21 -159
-22 -219 -1 -62 21 -139 95 -171 164 -21 45 -26 70 -26 136 0 70 4 89 31 142
35 71 101 134 162 156 56 19 163 20 220 0z"/>
<path d="M6247 1495 c-182 -50 -343 -219 -387 -405 -20 -82 -15 -222 9 -301
79 -252 342 -420 599 -381 111 17 226 76 308 158 35 35 64 70 64 78 0 7 -44
39 -97 70 l-98 55 -38 -39 c-64 -67 -108 -85 -212 -85 -74 0 -97 4 -132 23
-65 34 -109 78 -138 135 l-26 52 422 3 422 2 -6 108 c-8 172 -60 287 -181 399
-111 104 -214 144 -371 142 -49 0 -112 -7 -138 -14z m268 -245 c54 -24 115
-79 143 -129 l23 -41 -285 0 c-157 0 -286 4 -286 8 0 5 13 29 29 53 80 121
244 168 376 109z"/>
<path d="M7480 1496 c-126 -37 -255 -134 -320 -242 -58 -96 -79 -174 -80 -289
0 -169 41 -274 153 -392 168 -177 406 -220 622 -114 89 44 153 94 196 155 l29
39 -102 58 -102 58 -36 -38 c-19 -21 -55 -49 -80 -61 -54 -27 -156 -37 -217
-21 -85 23 -182 112 -199 184 l-6 27 416 0 416 0 0 78 c-1 250 -138 457 -361
544 -68 26 -259 35 -329 14z m277 -252 c53 -26 111 -81 138 -133 l16 -31 -286
0 c-157 0 -285 2 -285 5 0 33 91 131 147 159 83 41 183 41 270 0z"/>
<path d="M1460 955 l0 -545 114 0 115 0 3 323 3 322 27 51 c36 68 115 138 172
153 25 6 77 11 115 11 l71 0 0 115 0 115 -88 0 c-98 0 -178 -17 -252 -55 l-50
-25 0 40 0 40 -115 0 -115 0 0 -545z"/>
</g>
</svg>
