<svg width="20" height="20" viewBox="0 0 20 20" fill="none" xmlns="http://www.w3.org/2000/svg">
<path d="M13.6499 18.9582H2.69986C1.90819 18.9582 1.17486 18.5916 0.699862 17.9499C0.216528 17.2999 0.0748689 16.4832 0.316536 15.7082L3.82486 4.43317C4.14153 3.38317 5.10821 2.6665 6.20821 2.6665H16.4582C17.4665 2.6665 18.3749 3.26658 18.7582 4.19991C18.9665 4.68324 19.0082 5.23326 18.8832 5.77492L16.0749 17.0498C15.8082 18.1748 14.8082 18.9582 13.6499 18.9582ZM6.21652 3.92485C5.67486 3.92485 5.1832 4.28323 5.02486 4.80823L1.51654 16.0833C1.39987 16.4749 1.46653 16.8832 1.71653 17.2166C1.94986 17.5332 2.31653 17.7166 2.7082 17.7166H13.6582C14.2332 17.7166 14.7332 17.3249 14.8665 16.7665L17.6749 5.48317C17.7415 5.20817 17.7249 4.93322 17.6165 4.69155C17.4165 4.21655 16.9749 3.9165 16.4665 3.9165H6.21652V3.92485Z" fill="#292D32"/>
<path d="M17.3166 18.9584H13.3333C12.9916 18.9584 12.7083 18.6751 12.7083 18.3334C12.7083 17.9917 12.9916 17.7084 13.3333 17.7084H17.3166C17.6583 17.7084 17.9749 17.5667 18.2083 17.3167C18.4416 17.0667 18.5582 16.7334 18.5332 16.3918L17.7083 5.04176C17.6833 4.7001 17.9416 4.40005 18.2833 4.37505C18.6249 4.35839 18.9249 4.60834 18.9499 4.95001L19.7749 16.3001C19.8249 16.9834 19.5833 17.6668 19.1166 18.1668C18.6583 18.6751 17.9999 18.9584 17.3166 18.9584Z" fill="#292D32"/>
<path d="M8.06639 5.94159C8.01639 5.94159 7.9664 5.93324 7.9164 5.92491C7.58306 5.84157 7.37474 5.50821 7.45807 5.16655L8.32472 1.56659C8.40806 1.23326 8.74139 1.02488 9.08306 1.10822C9.41639 1.19155 9.62474 1.52491 9.54141 1.86658L8.67473 5.46664C8.60807 5.74997 8.34972 5.94159 8.06639 5.94159Z" fill="#292D32"/>
<path d="M13.65 5.95003C13.6083 5.95003 13.5583 5.95001 13.5166 5.93335C13.1833 5.85835 12.9666 5.525 13.0333 5.19167L13.8166 1.57503C13.8916 1.23336 14.2249 1.02507 14.5583 1.09173C14.8916 1.1584 15.1083 1.49998 15.0416 1.83331L14.2583 5.45005C14.1999 5.75005 13.9416 5.95003 13.65 5.95003Z" fill="#292D32"/>
<path d="M13.0834 10.625H6.41675C6.07508 10.625 5.79175 10.3417 5.79175 10C5.79175 9.65833 6.07508 9.375 6.41675 9.375H13.0834C13.4251 9.375 13.7084 9.65833 13.7084 10C13.7084 10.3417 13.4251 10.625 13.0834 10.625Z" fill="#292D32"/>
<path d="M12.2502 13.9583H5.5835C5.24183 13.9583 4.9585 13.6749 4.9585 13.3333C4.9585 12.9916 5.24183 12.7083 5.5835 12.7083H12.2502C12.5918 12.7083 12.8752 12.9916 12.8752 13.3333C12.8752 13.6749 12.5918 13.9583 12.2502 13.9583Z" fill="#292D32"/>
</svg>
