<svg width="18" height="22" viewBox="0 0 18 22" fill="none" xmlns="http://www.w3.org/2000/svg">
<path d="M11.0001 18.3789H11.7501V17.6289H11.0001V18.3789ZM7.00005 18.3789V17.6289H6.25005V18.3789H7.00005ZM15.0001 14.3789H14.2501V14.6896L14.4697 14.9092L15.0001 14.3789ZM10.5001 3.05891H9.75005V3.65149L10.3266 3.78857L10.5001 3.05891ZM7.50005 3.05891L7.67296 3.7887L8.25005 3.65197V3.05891H7.50005ZM3.00005 14.3789L3.53038 14.9092L3.75005 14.6896V14.3789H3.00005ZM9.00005 21.1289C10.5143 21.1289 11.7501 19.8931 11.7501 18.3789H10.2501C10.2501 19.0647 9.68584 19.6289 9.00005 19.6289V21.1289ZM11.0001 17.6289H7.00005V19.1289H11.0001V17.6289ZM6.25005 18.3789C6.25005 19.8907 7.4734 21.1289 9.00005 21.1289V19.6289C8.30671 19.6289 7.75005 19.0671 7.75005 18.3789H6.25005ZM15.7501 14.3789V9.37891H14.2501V14.3789H15.7501ZM15.7501 9.37891C15.7501 6.04668 13.9479 3.10776 10.6735 2.32925L10.3266 3.78857C12.7722 4.37005 14.2501 6.57113 14.2501 9.37891H15.7501ZM11.2501 3.05891V2.37891H9.75005V3.05891H11.2501ZM11.2501 2.37891C11.2501 1.13469 10.2443 0.128906 9.00005 0.128906V1.62891C9.41584 1.62891 9.75005 1.96312 9.75005 2.37891H11.2501ZM9.00005 0.128906C7.75584 0.128906 6.75005 1.13469 6.75005 2.37891H8.25005C8.25005 1.96312 8.58427 1.62891 9.00005 1.62891V0.128906ZM6.75005 2.37891V3.05891H8.25005V2.37891H6.75005ZM7.32714 2.32911C4.04177 3.10753 2.25005 6.03735 2.25005 9.37891H3.75005C3.75005 6.56046 5.21833 4.37029 7.67296 3.7887L7.32714 2.32911ZM2.25005 9.37891V14.3789H3.75005V9.37891H2.25005ZM2.46972 13.8486L1.17972 15.1386L2.24038 16.1992L3.53038 14.9092L2.46972 13.8486ZM1.17972 15.1386C0.0861241 16.2322 0.839345 18.1289 2.41005 18.1289V16.6289C2.20076 16.6289 2.07398 16.3656 2.24038 16.1992L1.17972 15.1386ZM2.41005 18.1289H15.5801V16.6289H2.41005V18.1289ZM15.5801 18.1289C17.1348 18.1289 17.9253 16.2435 16.8204 15.1386L15.7597 16.1992C15.9148 16.3543 15.8053 16.6289 15.5801 16.6289V18.1289ZM16.8204 15.1386L15.5304 13.8486L14.4697 14.9092L15.7597 16.1992L16.8204 15.1386Z" fill="#111111"/>
</svg>
