<svg width="24" height="25" viewBox="0 0 24 25" fill="none" xmlns="http://www.w3.org/2000/svg">
<path d="M12.5 22.812H4.07997C2.50997 22.812 1.21997 21.552 1.21997 19.992V5.15195C1.21997 3.62195 1.78997 2.43195 2.82997 1.78195C3.87997 1.12195 5.23997 1.14195 6.64997 1.84195L11.09 4.02195C12.3 4.62195 13.25 6.13195 13.25 7.47195V22.062C13.25 22.472 12.91 22.812 12.5 22.812ZM4.55997 2.81195C4.20997 2.81195 3.88997 2.89195 3.61997 3.06195C3.03997 3.42195 2.71997 4.17195 2.71997 5.15195V19.992C2.71997 20.722 3.32997 21.312 4.07997 21.312H11.75V7.47195C11.75 6.70195 11.13 5.71196 10.42 5.37195L5.97997 3.19195C5.46997 2.94195 4.98997 2.81195 4.55997 2.81195Z" fill="#292D32"/>
<path d="M18.81 22.812H12.5C12.09 22.812 11.75 22.472 11.75 22.062V10.482C11.75 10.252 11.85 10.042 12.03 9.90203C12.21 9.76203 12.43 9.70203 12.66 9.75203L13.13 9.85203L19.67 11.312C21.66 11.752 22.66 12.922 22.72 14.912C22.73 14.912 22.73 15.012 22.73 15.122V18.902C22.72 21.462 21.37 22.812 18.81 22.812ZM13.25 21.312H18.81C20.57 21.312 21.22 20.662 21.22 18.902V15.042C21.17 13.672 20.65 13.062 19.34 12.772L13.25 11.412V21.312Z" fill="#292D32"/>
<path d="M8.97 9.81201H5.5C5.09 9.81201 4.75 9.47201 4.75 9.06201C4.75 8.65201 5.09 8.31201 5.5 8.31201H8.97C9.38 8.31201 9.72 8.65201 9.72 9.06201C9.72 9.47201 9.39 9.81201 8.97 9.81201Z" fill="#292D32"/>
<path d="M8.97 13.812H5.5C5.09 13.812 4.75 13.472 4.75 13.062C4.75 12.652 5.09 12.312 5.5 12.312H8.97C9.38 12.312 9.72 12.652 9.72 13.062C9.72 13.472 9.39 13.812 8.97 13.812Z" fill="#292D32"/>
<path d="M15.22 17.812C13.57 17.812 12.22 16.462 12.22 14.812V10.582C12.22 10.352 12.32 10.142 12.5 9.99199C12.68 9.84199 12.91 9.79199 13.13 9.84199L17.63 10.852C17.97 10.932 18.22 11.232 18.22 11.582V14.802C18.22 16.462 16.88 17.812 15.22 17.812ZM13.72 11.522V14.812C13.72 15.642 14.39 16.312 15.22 16.312C16.05 16.312 16.72 15.642 16.72 14.812V12.192L13.72 11.522Z" fill="#292D32"/>
<path d="M19.72 17.8119C18.07 17.8119 16.72 16.4619 16.72 14.8119V11.5919C16.72 11.3619 16.82 11.1519 17 11.0119C17.18 10.8719 17.41 10.8119 17.63 10.8619L19.66 11.3119C21.65 11.7519 22.65 12.9219 22.71 14.9119C22.71 14.9319 22.71 14.9519 22.71 14.9719C22.63 16.5619 21.32 17.8119 19.72 17.8119ZM18.22 12.5219V14.8119C18.22 15.6419 18.89 16.3119 19.72 16.3119C20.51 16.3119 21.16 15.7019 21.21 14.9219C21.16 13.6619 20.64 13.0619 19.34 12.7719L18.22 12.5219Z" fill="#292D32"/>
</svg>
