<svg width="18" height="19" viewBox="0 0 18 19" fill="none" xmlns="http://www.w3.org/2000/svg">
<path fill-rule="evenodd" clip-rule="evenodd" d="M13.1986 11.6148H12.3645L12.0688 11.3298C13.3359 9.85159 13.9905 7.83495 13.6315 5.69161C13.1352 2.75639 10.6857 0.412436 7.72937 0.0534522C3.26319 -0.495582 -0.495582 3.26319 0.0534522 7.72937C0.412436 10.6857 2.75639 13.1352 5.69161 13.6315C7.83495 13.9905 9.8516 13.3358 11.3298 12.0688L11.6148 12.3645V13.1986L16.1021 17.6859C16.535 18.1188 17.2424 18.1188 17.6753 17.6859C18.1082 17.253 18.1082 16.5456 17.6753 16.1127L13.1986 11.6148ZM6.86327 11.6149C4.23424 11.6149 2.11201 9.49262 2.11201 6.8636C2.11201 4.23457 4.23424 2.11234 6.86327 2.11234C9.49229 2.11234 11.6145 4.23457 11.6145 6.8636C11.6145 9.49262 9.49229 11.6149 6.86327 11.6149Z" fill="#3276E8"/>
</svg>
