<svg width="22" height="22" viewBox="0 0 22 22" fill="none" xmlns="http://www.w3.org/2000/svg">
<path d="M7.33325 5.27075C6.95742 5.27075 6.64575 4.95909 6.64575 4.58325V1.83325C6.64575 1.45742 6.95742 1.14575 7.33325 1.14575C7.70909 1.14575 8.02075 1.45742 8.02075 1.83325V4.58325C8.02075 4.95909 7.70909 5.27075 7.33325 5.27075Z" fill="#3276E8"/>
<path d="M14.6667 5.27075C14.2909 5.27075 13.9792 4.95909 13.9792 4.58325V1.83325C13.9792 1.45742 14.2909 1.14575 14.6667 1.14575C15.0426 1.14575 15.3542 1.45742 15.3542 1.83325V4.58325C15.3542 4.95909 15.0426 5.27075 14.6667 5.27075Z" fill="#3276E8"/>
<path d="M7.79167 13.2916C7.6725 13.2916 7.55333 13.2641 7.44333 13.2183C7.32417 13.1725 7.2325 13.1083 7.14083 13.0258C6.97583 12.8516 6.875 12.6225 6.875 12.375C6.875 12.2558 6.9025 12.1366 6.94834 12.0266C6.99417 11.9166 7.05833 11.8158 7.14083 11.7241C7.2325 11.6416 7.32417 11.5774 7.44333 11.5316C7.77333 11.3941 8.18583 11.4675 8.4425 11.7241C8.6075 11.8983 8.70833 12.1366 8.70833 12.375C8.70833 12.43 8.69917 12.4941 8.69 12.5583C8.68083 12.6133 8.6625 12.6683 8.635 12.7233C8.61667 12.7783 8.58917 12.8333 8.5525 12.8883C8.525 12.9341 8.47917 12.98 8.4425 13.0258C8.26833 13.1908 8.03 13.2916 7.79167 13.2916Z" fill="#3276E8"/>
<path d="M10.9999 13.2916C10.8808 13.2916 10.7616 13.2641 10.6516 13.2182C10.5324 13.1724 10.4408 13.1082 10.3491 13.0257C10.1841 12.8515 10.0833 12.6224 10.0833 12.3749C10.0833 12.2557 10.1108 12.1365 10.1566 12.0265C10.2024 11.9165 10.2666 11.8157 10.3491 11.7241C10.4408 11.6416 10.5324 11.5774 10.6516 11.5315C10.9816 11.3849 11.3941 11.4674 11.6508 11.7241C11.8158 11.8982 11.9166 12.1366 11.9166 12.3749C11.9166 12.4299 11.9074 12.4941 11.8983 12.5582C11.8891 12.6132 11.8708 12.6682 11.8433 12.7232C11.8249 12.7782 11.7974 12.8332 11.7608 12.8882C11.7333 12.934 11.6874 12.9799 11.6508 13.0257C11.4766 13.1907 11.2383 13.2916 10.9999 13.2916Z" fill="#3276E8"/>
<path d="M14.2084 13.2916C14.0892 13.2916 13.9701 13.2641 13.8601 13.2182C13.7409 13.1724 13.6492 13.1082 13.5576 13.0257C13.5209 12.9799 13.4842 12.934 13.4476 12.8882C13.4109 12.8332 13.3834 12.7782 13.3651 12.7232C13.3376 12.6682 13.3192 12.6132 13.3101 12.5582C13.3009 12.4941 13.2917 12.4299 13.2917 12.3749C13.2917 12.1366 13.3926 11.8982 13.5576 11.7241C13.6492 11.6416 13.7409 11.5774 13.8601 11.5315C14.1992 11.3849 14.6026 11.4674 14.8592 11.7241C15.0242 11.8982 15.1251 12.1366 15.1251 12.3749C15.1251 12.4299 15.1159 12.4941 15.1067 12.5582C15.0976 12.6132 15.0792 12.6682 15.0517 12.7232C15.0334 12.7782 15.0059 12.8332 14.9692 12.8882C14.9417 12.934 14.8959 12.9799 14.8592 13.0257C14.6851 13.1907 14.4467 13.2916 14.2084 13.2916Z" fill="#3276E8"/>
<path d="M7.79167 16.5001C7.6725 16.5001 7.55333 16.4726 7.44333 16.4268C7.33333 16.3809 7.2325 16.3167 7.14083 16.2342C6.97583 16.0601 6.875 15.8218 6.875 15.5834C6.875 15.4643 6.9025 15.3451 6.94834 15.2351C6.99417 15.1159 7.05833 15.0151 7.14083 14.9326C7.48 14.5934 8.10333 14.5934 8.4425 14.9326C8.6075 15.1068 8.70833 15.3451 8.70833 15.5834C8.70833 15.8218 8.6075 16.0601 8.4425 16.2342C8.26833 16.3992 8.03 16.5001 7.79167 16.5001Z" fill="#3276E8"/>
<path d="M10.9999 16.5001C10.7616 16.5001 10.5233 16.3992 10.3491 16.2342C10.1841 16.0601 10.0833 15.8218 10.0833 15.5834C10.0833 15.4643 10.1108 15.3451 10.1566 15.2351C10.2024 15.1159 10.2666 15.0151 10.3491 14.9326C10.6883 14.5934 11.3116 14.5934 11.6508 14.9326C11.7333 15.0151 11.7974 15.1159 11.8433 15.2351C11.8891 15.3451 11.9166 15.4643 11.9166 15.5834C11.9166 15.8218 11.8158 16.0601 11.6508 16.2342C11.4766 16.3992 11.2383 16.5001 10.9999 16.5001Z" fill="#3276E8"/>
<path d="M14.2084 16.4999C13.9701 16.4999 13.7317 16.3991 13.5576 16.2341C13.4751 16.1516 13.4109 16.0508 13.3651 15.9316C13.3192 15.8216 13.2917 15.7024 13.2917 15.5833C13.2917 15.4641 13.3192 15.3449 13.3651 15.2349C13.4109 15.1157 13.4751 15.0149 13.5576 14.9324C13.7684 14.7216 14.0892 14.6207 14.3826 14.6849C14.4467 14.6941 14.5017 14.7124 14.5567 14.7399C14.6117 14.7582 14.6667 14.7858 14.7217 14.8224C14.7676 14.8499 14.8134 14.8958 14.8592 14.9324C15.0242 15.1066 15.1251 15.3449 15.1251 15.5833C15.1251 15.8216 15.0242 16.0599 14.8592 16.2341C14.6851 16.3991 14.4467 16.4999 14.2084 16.4999Z" fill="#3276E8"/>
<path d="M18.7916 9.02002H3.20825C2.83242 9.02002 2.52075 8.70835 2.52075 8.33252C2.52075 7.95669 2.83242 7.64502 3.20825 7.64502H18.7916C19.1674 7.64502 19.4791 7.95669 19.4791 8.33252C19.4791 8.70835 19.1674 9.02002 18.7916 9.02002Z" fill="#3276E8"/>
<path d="M14.6667 20.8541H7.33333C3.9875 20.8541 2.0625 18.9291 2.0625 15.5833V7.79159C2.0625 4.44575 3.9875 2.52075 7.33333 2.52075H14.6667C18.0125 2.52075 19.9375 4.44575 19.9375 7.79159V15.5833C19.9375 18.9291 18.0125 20.8541 14.6667 20.8541ZM7.33333 3.89575C4.71167 3.89575 3.4375 5.16992 3.4375 7.79159V15.5833C3.4375 18.2049 4.71167 19.4791 7.33333 19.4791H14.6667C17.2883 19.4791 18.5625 18.2049 18.5625 15.5833V7.79159C18.5625 5.16992 17.2883 3.89575 14.6667 3.89575H7.33333Z" fill="#3276E8"/>
</svg>
